<?xml version="1.0" encoding="UTF-8" standalone="no"?>
<svg
   fill="#000000"
   width="773.78253"
   height="773.86322"
   viewBox="0 0 495.22083 495.27246"
   version="1.1"
   id="svg3"
   sodipodi:docname="favicon.svg"
   inkscape:version="1.3.2 (091e20ef0f, 2023-11-25)"
   xmlns:inkscape="http://www.inkscape.org/namespaces/inkscape"
   xmlns:sodipodi="http://sodipodi.sourceforge.net/DTD/sodipodi-0.dtd"
   xmlns="http://www.w3.org/2000/svg"
   xmlns:svg="http://www.w3.org/2000/svg"
   xmlns:rdf="http://www.w3.org/1999/02/22-rdf-syntax-ns#"
   xmlns:cc="http://creativecommons.org/ns#">
  <defs
     id="defs3" />
  <sodipodi:namedview
     id="namedview3"
     pagecolor="#505050"
     bordercolor="#eeeeee"
     borderopacity="1"
     inkscape:showpageshadow="0"
     inkscape:pageopacity="0"
     inkscape:pagecheckerboard="0"
     inkscape:deskcolor="#505050"
     inkscape:zoom="0.31028933"
     inkscape:cx="808.92243"
     inkscape:cy="273.93788"
     inkscape:window-width="1440"
     inkscape:window-height="783"
     inkscape:window-x="0"
     inkscape:window-y="27"
     inkscape:window-maximized="1"
     inkscape:current-layer="svg3"
     showgrid="false"
     showguides="true"
     inkscape:lockguides="false">
    <sodipodi:guide
       position="643.38991,873.59782"
       orientation="0,-1"
       id="guide6"
       inkscape:locked="false" />
    <sodipodi:guide
       position="550.57331,815.84527"
       orientation="0,-1"
       id="guide7"
       inkscape:locked="false" />
  </sodipodi:namedview>
  <path
     d="m 99.171142,241.60144 a 16,16 0 0 0 -21.85,-5.86 l -49.71,28.67 a 39.71,39.71 0 0 0 -18.7999999,24.91 40.9,40.9 0 0 0 4.5499999,30.35 l 4.36,7.54 a 40,40 0 0 0 54.62,14.62 l 49.669998,-28.63 a 16,16 0 0 0 5.87,-21.86 z"
     id="path1"
     style="fill:#deddf4;fill-opacity:1;stroke:#232136;stroke-width:15.36;stroke-dasharray:none;stroke-opacity:1" />
  <path
     d="m 374.45114,432.40144 -94.12,-186.8 a 2,2 0 0 1 0.79,-2.63 l 8.3,-4.79 a 16,16 0 0 0 5.86,-21.86 l -47.53,-82.33 a 16,16 0 0 0 -21.86,-5.87 l -86.38,49.8 a 39.73,39.73 0 0 0 -18.65,24.28 34.82,34.82 0 0 0 -1.37,9.76 c 0.06,7.6 9.2,22.7 18.12,38.28 9.59,16.75 19.24,33.88 26.34,38.15 4.52,2.72 12.5,4.9 19.21,4.9 h 0.84 l -79.32,171.6 a 16,16 0 1 0 29.05,13.42 l 93.68,-202.65 a 7.94,7.94 0 0 1 3.26,-3.57 l 19.21,-11.08 a 2,2 0 0 1 2.78,0.84 l 93.21,185 a 16.001378,16.001378 0 0 0 28.58,-14.4 z"
     id="path2"
     style="fill:#deddf4;fill-opacity:1;stroke:#232136;stroke-width:15.36;stroke-dasharray:none;stroke-opacity:1" />
  <path
     d="m 481.82114,107.34144 -46.12,-79.740004 a 40.08,40.08 0 0 0 -54.63,-14.62 l -93.34,53.78 a 39.69,39.69 0 0 0 -18.65,24.28 32.76,32.76 0 0 0 -1.27,13.250004 c 1.74,12.62 13,30.4 26.41,53.89 13.58,23.73 28.91,50.48 36.93,56.27 a 40.18,40.18 0 0 0 23.18,7.37 39.77,39.77 0 0 0 19.92,-5.34 l 93.36,-53.81 a 39.72,39.72 0 0 0 18.79,-24.84 41,41 0 0 0 -4.58,-30.49 z"
     id="path3"
     style="fill:#deddf4;fill-opacity:1;stroke:#232136;stroke-width:15.36;stroke-dasharray:none;stroke-opacity:1" />
  <metadata
     id="metadata7">
    <rdf:RDF>
      <cc:Work
         rdf:about="">
        <cc:license
           rdf:resource="http://creativecommons.org/licenses/by/4.0/" />
      </cc:Work>
      <cc:License
         rdf:about="http://creativecommons.org/licenses/by/4.0/">
        <cc:permits
           rdf:resource="http://creativecommons.org/ns#Reproduction" />
        <cc:permits
           rdf:resource="http://creativecommons.org/ns#Distribution" />
        <cc:requires
           rdf:resource="http://creativecommons.org/ns#Notice" />
        <cc:requires
           rdf:resource="http://creativecommons.org/ns#Attribution" />
        <cc:permits
           rdf:resource="http://creativecommons.org/ns#DerivativeWorks" />
      </cc:License>
    </rdf:RDF>
  </metadata>
</svg>
